Coordinates
version=1
nRows=9
nColumns=24
inDegrees=yes

Units are S.I. units (second, meters, Newtons, ...)
Angles are in degrees.

endheader
time	pelvis_tilt	pelvis_list	pelvis_rotation	pelvis_tx	pelvis_ty	pelvis_tz	hip_flexion_r	hip_adduction_r	hip_rotation_r	knee_angle_r	ankle_angle_r	subtalar_angle_r	mtp_angle_r	hip_flexion_l	hip_adduction_l	hip_rotation_l	knee_angle_l	ankle_angle_l	subtalar_angle_l	mtp_angle_l	lumbar_extension	lumbar_bending	lumbar_rotation
      2.90500000	     -9.54740301	     -6.36341259	      7.28533732	     -1.62520439	     -0.03331600	      0.71499011	     29.67006828	      3.91193653	     -1.10723972	    -33.23997508	      4.43619036	     -0.94036506	     16.73378344	     15.69025499	     -5.33502615	      1.88979134	    -61.75404948	    -20.39974599	     10.52663556	     31.88861348	      8.50034765	     13.52234695	     -8.03088119
      2.91000000	     -9.50883180	     -6.37038451	      7.10185770	     -1.61765012	     -0.03212483	      0.71536793	     28.92322334	      4.11008362	     -0.96709847	    -32.83864908	      4.76953651	     -0.91342724	     16.49023120	     16.74608761	     -5.43508501	      1.47260255	    -63.07154340	    -20.03551255	     10.65837152	     33.51356161	      8.41582191	     13.59213688	     -7.55798476
      2.91500000	     -9.45208961	     -6.32315653	      6.89144650	     -1.61012638	     -0.03088514	      0.71577219	     28.13678931	      4.26566731	     -0.76901017	    -32.40620782	      5.08254548	     -0.88134455	     16.41347479	     17.75800182	     -5.49092390	      1.02986138	    -64.31535785	    -19.57488315	     10.78049338	     34.40086896	      8.29507895	     13.60419480	     -7.05788961
      2.92000000	     -9.37082712	     -6.32342581	      6.75772865	     -1.60260755	     -0.02957312	      0.71596369	     27.29075299	      4.40816714	     -0.69179984	    -31.90083097	      5.37297664	     -0.78500323	     16.38745608	     18.76908299	     -5.57641713	      0.63914758	    -65.48216741	    -19.27818326	     10.55800901	     34.84422445	      8.18057763	     13.66965657	     -6.65559418
      2.92500000	     -9.34910572	     -6.29267353	      6.54365774	     -1.59502956	     -0.02827342	      0.71638667	     26.48078439	      4.59022381	     -0.41882605	    -31.35735118	      5.56724742	     -0.95300920	     16.13893669	     19.79076181	     -5.66428529	      0.19055059	    -66.49963454	    -19.10571108	     10.24094541	     35.39439226	      8.12242299	     13.68584949	     -6.16798201
      2.93000000	     -9.28614358	     -6.29148319	      6.40160945	     -1.58752253	     -0.02697410	      0.71663333	     25.61622209	      4.73378607	     -0.30141622	    -30.78172423	      5.81259017	     -0.90796019	     16.05483539	     20.79007213	     -5.76186781	     -0.17744512	    -67.45786174	    -18.93138005	      9.83828945	     35.59661101	      8.03319360	     13.73226386	     -5.81603667
      2.93500000	     -9.25677747	     -6.26797001	      6.21070996	     -1.57998408	     -0.02566400	      0.71697312	     24.76013561	      4.89525696	     -0.05021625	    -30.16167825	      5.96083325	     -1.05831707	     15.81248975	     21.78993471	     -5.85035665	     -0.59446138	    -68.30257925	    -18.81201751	      9.22341733	     35.60076225	      7.97401485	     13.75201548	     -5.38030381
      2.94000000	     -9.22860270	     -6.23718549	      6.01089998	     -1.57241670	     -0.02438828	      0.71734171	     23.88398162	      5.05414263	      0.25050418	    -29.51401426	      6.14844494	     -1.18564246	     15.49344650	     22.77184019	     -5.94459661	     -1.02001594	    -69.06858830	    -18.62454496	      8.58487397	     35.34322462	      7.92229135	     13.75694376	     -5.01427935
      2.94500000	     -9.19337527	     -6.24333658	      5.83838890	     -1.56493035	     -0.02314906	      0.71762242	     23.00014251	      5.21709132	      0.46078146	    -28.84091936	      6.29522004	     -1.27122259	     15.22094586	     23.75501853	     -6.05378875	     -1.36648923	    -69.76750862	    -18.41788535	      7.94329548	     35.06251539	      7.85731246	     13.80454305	     -4.61561982
